<svg width="24" height="17" viewBox="0 0 24 17" fill="none" xmlns="http://www.w3.org/2000/svg">
<path d="M2.4 4.75C2.4 2.12637 4.54875 0 7.2 0H16.8C19.4513 0 21.6 2.12637 21.6 4.75V5.99688C20.2313 6.27148 19.2 7.47012 19.2 8.90625V10.6875H4.8V8.90625C4.8 7.47012 3.76875 6.27148 2.4 5.99688V4.75ZM20.4 8.90625C20.4 8.13066 20.9025 7.47012 21.6 7.2252C21.7875 7.1584 21.99 7.125 22.2 7.125C23.1938 7.125 24 7.92285 24 8.90625V15.4375C24 16.0943 23.4638 16.625 22.8 16.625H21.6C20.9363 16.625 20.4 16.0943 20.4 15.4375H3.6C3.6 16.0943 3.06375 16.625 2.4 16.625H1.2C0.53625 16.625 0 16.0943 0 15.4375V8.90625C0 7.92285 0.80625 7.125 1.8 7.125C2.01 7.125 2.2125 7.16211 2.4 7.2252C3.0975 7.47012 3.6 8.13066 3.6 8.90625V11.875H20.4V8.90625Z"/>
</svg>
