<svg width="76" height="51" viewBox="0 0 76 51" fill="none" xmlns="http://www.w3.org/2000/svg">
<path d="M49.386 1.74391C50.5943 -0.581303 53.9207 -0.581302 55.1289 1.74391L75.0225 40.0291C76.1419 42.1833 74.5787 44.7571 72.1511 44.7571H32.3639C29.9363 44.7571 28.3731 42.1833 29.4925 40.0291L49.386 1.74391Z" fill="white" fill-opacity="0.8"/>
<path d="M49.3859 1.74415C50.5941 -0.581059 53.9208 -0.581059 55.129 1.74415L75.0226 40.0293C76.1068 42.1161 74.6737 44.597 72.3761 44.75L72.1515 44.7568V42.3301C72.758 42.3298 73.1487 41.6868 72.8693 41.1484L52.9757 2.86329C52.6737 2.28199 51.8412 2.28199 51.5392 2.86329L31.6456 41.1484C31.3662 41.6869 31.7576 42.3301 32.3644 42.3301V44.7568L32.1388 44.75C29.9153 44.6019 28.5019 42.2738 29.3956 40.2324L29.4923 40.0293L49.3859 1.74415ZM72.1515 42.3301V44.7568H32.3644V42.3301H72.1515Z" fill="black"/>
<path d="M20.2624 1.74391C21.4707 -0.581303 24.7971 -0.581302 26.0053 1.74391L45.8989 40.0291C47.0183 42.1833 45.4551 44.7571 43.0275 44.7571H3.2403C0.812687 44.7571 -0.750472 42.1833 0.368861 40.0291L20.2624 1.74391Z" fill="white" fill-opacity="0.8"/>
<path d="M20.2623 1.74415C21.4705 -0.581059 24.7972 -0.581059 26.0054 1.74415L45.899 40.0293C46.9832 42.1161 45.5501 44.597 43.2525 44.75L43.0279 44.7568V42.3301C43.6344 42.3298 44.0251 41.6868 43.7457 41.1484L23.8521 2.86329C23.5501 2.28199 22.7176 2.28199 22.4156 2.86329L2.52203 41.1484C2.24261 41.6869 2.63404 42.3301 3.24078 42.3301V44.7568L3.0152 44.75C0.791712 44.6019 -0.621736 42.2738 0.272032 40.2324L0.368712 40.0293L20.2623 1.74415ZM43.0279 42.3301V44.7568H3.24078V42.3301H43.0279Z" fill="black"/>
<path d="M34.8235 1.75221C36.0312 -0.574956 39.3601 -0.574956 40.5679 1.75221L63.2669 45.4912C64.3848 47.6453 62.8216 50.2177 60.3947 50.2177H14.9966C12.5697 50.2177 11.0065 47.6453 12.1244 45.4912L34.8235 1.75221Z" fill="white"/>
<path d="M34.8234 1.75192C36.0312 -0.574907 39.3597 -0.574812 40.5676 1.75192L63.2668 45.4912C64.3847 47.6453 62.8216 50.2177 60.3947 50.2177V47.791C61.0014 47.791 61.3919 47.1479 61.1125 46.6093L38.4133 2.87009C38.1113 2.28856 37.2797 2.28847 36.9777 2.87009L14.2785 46.6093C13.9993 47.1477 14.3898 47.7908 14.9963 47.791V50.2177C12.5696 50.2175 11.0064 47.6452 12.1242 45.4912L34.8234 1.75192ZM60.3947 47.791V50.2177H14.9963V47.791H60.3947Z" fill="black"/>
</svg>
