<svg width="38" height="23" viewBox="0 0 38 23" fill="none" xmlns="http://www.w3.org/2000/svg">
<path d="M18.6161 0.257507C18.7685 -0.0360748 19.1882 -0.0360255 19.3407 0.257507L30.7987 22.3356C30.9392 22.6072 30.7422 22.931 30.4364 22.9313H7.52038C7.21436 22.9312 7.0174 22.6073 7.15808 22.3356L18.6161 0.257507Z" fill="white"/>
<path d="M36.3841 21.367L36.4975 21.363C36.4602 21.3655 36.4224 21.367 36.3841 21.367Z" fill="white" fill-opacity="0.8"/>
<path d="M25.9797 0.219966C26.1322 -0.073371 26.5523 -0.0732727 26.7048 0.219966L36.7465 19.5451C36.8875 19.8168 36.6903 20.1414 36.3841 20.1415H31.0713L23.3543 5.27159L25.9797 0.219966Z" fill="white" fill-opacity="0.8"/>
<path d="M37.9837 19.3947L38 19.4835C37.9949 19.4511 37.9884 19.4187 37.9813 19.3864C37.9819 19.3892 37.9831 19.3919 37.9837 19.3947Z" fill="white" fill-opacity="0.8"/>
<path d="M37.8827 19.0827C37.8931 19.1065 37.9021 19.1307 37.9113 19.1547C37.9017 19.1297 37.8921 19.1046 37.8812 19.0798L37.8827 19.0827Z" fill="white" fill-opacity="0.8"/>
<path d="M1.61585 21.367L1.50247 21.363C1.53982 21.3655 1.57762 21.367 1.61585 21.367Z" fill="white" fill-opacity="0.8"/>
<path d="M12.0203 0.219966C11.8678 -0.073371 11.4477 -0.0732727 11.2952 0.219966L1.25354 19.5451C1.1125 19.8168 1.30969 20.1414 1.61585 20.1415H6.92873L14.6457 5.27159L12.0203 0.219966Z" fill="white" fill-opacity="0.8"/>
<path d="M0.0162668 19.3947L0 19.4835C0.00510597 19.4511 0.0115585 19.4187 0.0187321 19.3864C0.0181036 19.3892 0.0168791 19.3919 0.0162668 19.3947Z" fill="white" fill-opacity="0.8"/>
<path d="M0.117319 19.0827C0.106894 19.1065 0.0979195 19.1307 0.0887289 19.1547C0.0983086 19.1297 0.107877 19.1046 0.118798 19.0798L0.117319 19.0827Z" fill="white" fill-opacity="0.8"/>
</svg>
