<svg width="27" height="22" viewBox="0 0 27 22" fill="none" xmlns="http://www.w3.org/2000/svg">
<path d="M2.66667 21.3333C1.93333 21.3333 1.30556 21.0722 0.783333 20.55C0.261111 20.0278 0 19.4 0 18.6667V14.1667C0 13.9222 0.0777778 13.7111 0.233333 13.5333C0.388889 13.3556 0.588889 13.2444 0.833333 13.2C1.36667 13.0222 1.80556 12.7 2.15 12.2333C2.49444 11.7667 2.66667 11.2444 2.66667 10.6667C2.66667 10.0889 2.49444 9.56667 2.15 9.1C1.80556 8.63333 1.36667 8.31111 0.833333 8.13333C0.588889 8.08889 0.388889 7.97778 0.233333 7.8C0.0777778 7.62222 0 7.41111 0 7.16667V2.66667C0 1.93333 0.261111 1.30556 0.783333 0.783333C1.30556 0.261111 1.93333 0 2.66667 0H24C24.7333 0 25.3611 0.261111 25.8833 0.783333C26.4056 1.30556 26.6667 1.93333 26.6667 2.66667V7.16667C26.6667 7.41111 26.5889 7.62222 26.4333 7.8C26.2778 7.97778 26.0778 8.08889 25.8333 8.13333C25.3 8.31111 24.8611 8.63333 24.5167 9.1C24.1722 9.56667 24 10.0889 24 10.6667C24 11.2444 24.1722 11.7667 24.5167 12.2333C24.8611 12.7 25.3 13.0222 25.8333 13.2C26.0778 13.2444 26.2778 13.3556 26.4333 13.5333C26.5889 13.7111 26.6667 13.9222 26.6667 14.1667V18.6667C26.6667 19.4 26.4056 20.0278 25.8833 20.55C25.3611 21.0722 24.7333 21.3333 24 21.3333H2.66667ZM13.3333 17.3333C13.7111 17.3333 14.0278 17.2056 14.2833 16.95C14.5389 16.6944 14.6667 16.3778 14.6667 16C14.6667 15.6222 14.5389 15.3056 14.2833 15.05C14.0278 14.7944 13.7111 14.6667 13.3333 14.6667C12.9556 14.6667 12.6389 14.7944 12.3833 15.05C12.1278 15.3056 12 15.6222 12 16C12 16.3778 12.1278 16.6944 12.3833 16.95C12.6389 17.2056 12.9556 17.3333 13.3333 17.3333ZM13.3333 12C13.7111 12 14.0278 11.8722 14.2833 11.6167C14.5389 11.3611 14.6667 11.0444 14.6667 10.6667C14.6667 10.2889 14.5389 9.97222 14.2833 9.71667C14.0278 9.46111 13.7111 9.33333 13.3333 9.33333C12.9556 9.33333 12.6389 9.46111 12.3833 9.71667C12.1278 9.97222 12 10.2889 12 10.6667C12 11.0444 12.1278 11.3611 12.3833 11.6167C12.6389 11.8722 12.9556 12 13.3333 12ZM13.3333 6.66667C13.7111 6.66667 14.0278 6.53889 14.2833 6.28333C14.5389 6.02778 14.6667 5.71111 14.6667 5.33333C14.6667 4.95556 14.5389 4.63889 14.2833 4.38333C14.0278 4.12778 13.7111 4 13.3333 4C12.9556 4 12.6389 4.12778 12.3833 4.38333C12.1278 4.63889 12 4.95556 12 5.33333C12 5.71111 12.1278 6.02778 12.3833 6.28333C12.6389 6.53889 12.9556 6.66667 13.3333 6.66667Z" fill="#144D4A"/>
</svg>
