<svg width="48" height="48" viewBox="0 0 48 48" fill="none" xmlns="http://www.w3.org/2000/svg">
<g clip-path="url(#clip0_142_4422)">
<rect width="48" height="48" rx="24" fill="white"/>
<circle cx="24" cy="24" r="24" fill="#DEF4FF"/>
<path d="M42.3504 33.3547C44.0016 29.3228 41.3184 28.91 38.5248 26.8268C35.7312 24.7436 40.2816 23.8508 41.2128 21.71C42.144 19.5692 40.488 18.062 38.424 16.9244C36.3552 15.7868 33.3504 11.3612 33.3504 11.3612L33.216 11.2988C34.776 14.4284 34.7088 18.0044 34.6848 18.5372C35.184 18.566 36.1152 18.7724 36.2304 19.9532C36.384 21.5708 35.8416 22.814 34.8336 23.3516C34.8336 23.3516 34.6416 23.438 34.2336 23.5196C32.9808 28.6268 29.2512 32.3372 24.84 32.3372C20.4288 32.3372 16.6944 28.6268 15.4464 23.51V23.5436C14.952 23.4572 14.736 23.3516 14.736 23.3516C13.728 22.814 13.1856 21.5708 13.3392 19.9532C13.4592 18.6764 14.544 18.5372 14.9952 18.5324C14.9856 18.2348 14.9616 17.03 15.192 15.494C14.4288 15.8684 12.1392 17.1068 12.1824 18.5324C12.24 20.246 12.7296 22.598 10.5264 23.2364C8.32317 23.8748 8.24637 27.9788 9.17277 30.0619C10.0992 32.1451 10.7232 33.4555 7.81437 34.7276C4.90557 35.9995 8.14077 38.4188 7.82877 43.0652C7.51677 47.7116 11.7552 45.6523 20.1936 44.1019C28.632 42.5515 34.6944 44.6203 39.2448 44.1019C43.7904 43.5835 43.2768 42.1435 41.6208 40.0027C39.9648 37.8619 40.6896 37.3867 42.3456 33.3547H42.3504Z" fill="#441D39"/>
<path d="M26.2465 8.0399L33.2209 11.2991C31.9105 8.6735 29.4529 6.3599 24.8449 6.4223C17.7505 6.3215 15.7489 11.8559 15.1969 15.4943C15.3505 15.4175 15.4465 15.3743 15.4465 15.3743L26.2465 8.0351V8.0399Z" fill="#C1735C"/>
<path d="M43.2815 42.1444C39.3071 40.8052 29.3759 35.6644 29.3759 35.6644H19.5023C19.5023 35.6644 9.57594 40.8052 5.59674 42.1444C1.62234 43.4836 1.62234 50.2708 1.62234 50.2708H47.2607C47.2607 50.2708 47.2607 43.4836 43.2863 42.1444H43.2815Z" fill="#4598C4"/>
<path d="M28.7665 30.9694H20.0641L19.4161 36.4126L24.5329 47.3806L29.4385 36.1246L28.7665 30.9694Z" fill="#C1735C"/>
<path d="M20.0783 30.7584L19.6895 34.1088C19.6895 34.1088 26.4335 34.728 28.8095 31.7712V31.2672C27.5951 31.9536 26.2559 32.3376 24.8399 32.3376C23.1119 32.3376 21.4895 31.7616 20.0783 30.7584Z" fill="#A5503C"/>
<path d="M36.2351 19.9536C36.1247 18.7728 35.1887 18.5664 34.6895 18.5376C34.7087 18.0048 34.7807 14.4288 33.2207 11.2992L26.2463 8.04001L15.4463 15.3792C15.4463 15.3792 15.3503 15.4224 15.1967 15.4992C14.9615 17.0352 14.9855 18.24 14.9999 18.5376C14.5487 18.5376 13.4639 18.6816 13.3439 19.9584C13.1903 21.576 13.7327 22.8192 14.7407 23.3568C14.7407 23.3568 14.9567 23.4624 15.4511 23.5488V23.5152C16.2095 26.6256 17.8895 29.2128 20.0831 30.7632C21.4943 31.7664 23.1167 32.3424 24.8447 32.3424C26.2559 32.3424 27.5999 31.9584 28.8143 31.272C31.3919 29.8176 33.3887 26.9952 34.2383 23.5248C34.6511 23.4432 34.8383 23.3568 34.8383 23.3568C35.8463 22.8192 36.3887 21.576 36.2351 19.9584V19.9536Z" fill="#C1735C"/>
<path d="M18.0671 17.0115C19.7135 16.8963 21.1151 17.2803 21.8255 17.4963C22.0415 17.5635 22.2671 17.4771 22.3583 17.3091C22.4543 17.1123 22.3343 16.8867 22.0943 16.8099C21.2879 16.5603 19.8287 16.1619 18.2111 16.5411C17.9615 16.5987 17.5151 16.7859 17.6207 16.9923C17.6831 17.0643 17.8511 17.0307 18.0671 17.0163V17.0115Z" fill="#441D39"/>
<path d="M31.7134 17.0927C30.0718 16.9103 28.6606 17.2415 27.9406 17.4335C27.7246 17.4911 27.499 17.3999 27.4174 17.2223C27.3262 17.0207 27.4558 16.7951 27.7006 16.7327C28.5166 16.5119 29.9902 16.1711 31.5934 16.6127C31.8382 16.6799 32.2798 16.8863 32.1646 17.0879C32.0974 17.1599 31.9342 17.1167 31.7182 17.0879L31.7134 17.0927Z" fill="#441D39"/>
<path d="M29.4961 20.7548C29.8169 20.7548 30.0769 20.3035 30.0769 19.7468C30.0769 19.1901 29.8169 18.7388 29.4961 18.7388C29.1753 18.7388 28.9153 19.1901 28.9153 19.7468C28.9153 20.3035 29.1753 20.7548 29.4961 20.7548Z" fill="#441D39"/>
<path d="M20.7839 20.5485C21.1047 20.5485 21.3647 20.0972 21.3647 19.5405C21.3647 18.9838 21.1047 18.5325 20.7839 18.5325C20.4632 18.5325 20.2031 18.9838 20.2031 19.5405C20.2031 20.0972 20.4632 20.5485 20.7839 20.5485Z" fill="#441D39"/>
<path d="M25.5263 24.2783H24.6095C24.2015 24.2783 23.8415 24.1199 23.6495 23.8559C23.5103 23.6687 23.4719 23.4479 23.5391 23.2319C23.7503 22.5455 23.9279 21.8879 23.9279 21.8831C23.9615 21.7535 24.0911 21.6815 24.2207 21.7151C24.3503 21.7487 24.4271 21.8831 24.3887 22.0079C24.3887 22.0079 24.2111 22.6751 23.9951 23.3711C23.9759 23.4431 23.9855 23.5055 24.0335 23.5727C24.1343 23.7119 24.3599 23.7983 24.6095 23.7983H25.5263C25.6607 23.7983 25.7663 23.9039 25.7663 24.0383C25.7663 24.1727 25.6607 24.2783 25.5263 24.2783Z" fill="#A5503C"/>
<path d="M24.6481 27.2976C23.5297 27.2976 22.6801 27.144 22.6177 27.1296C22.4881 27.1056 22.4017 26.9808 22.4257 26.8512C22.4497 26.7216 22.5745 26.6352 22.7041 26.6592C22.7281 26.6592 25.4065 27.1536 27.4993 26.3712C27.6241 26.3232 27.7633 26.3856 27.8065 26.5104C27.8545 26.6352 27.7873 26.7744 27.6673 26.8176C26.6641 27.192 25.5649 27.2976 24.6433 27.2976H24.6481Z" fill="#A5503C"/>
<path d="M29.976 22.3343C30.9012 22.3343 31.6512 22.1623 31.6512 21.9503C31.6512 21.7382 30.9012 21.5663 29.976 21.5663C29.0508 21.5663 28.3008 21.7382 28.3008 21.9503C28.3008 22.1623 29.0508 22.3343 29.976 22.3343Z" fill="#AF5D4E"/>
<path d="M20.203 22.3343C21.1282 22.3343 21.8782 22.1623 21.8782 21.9503C21.8782 21.7382 21.1282 21.5663 20.203 21.5663C19.2778 21.5663 18.5278 21.7382 18.5278 21.9503C18.5278 22.1623 19.2778 22.3343 20.203 22.3343Z" fill="#AF5D4E"/>
<path d="M14.6494 15.811L14.6782 16.0366L13.315 17.4526L12.2686 20.5486C12.2686 20.5486 13.4926 24.5182 15.235 26.9806C16.9726 29.4478 16.1806 25.723 15.4462 23.5054C14.7118 21.2878 16.0846 21.259 16.4062 19.747C16.6078 18.7918 16.2526 17.9134 15.9646 17.3998C15.7102 16.5214 15.9358 15.4654 17.1406 15.139C19.963 14.3662 18.115 9.68625 18.115 9.68625C16.4926 10.7278 15.0814 14.9326 14.6542 15.8062L14.6494 15.811Z" fill="#441D39"/>
<path d="M36.259 17.4527L35.2606 17.5294C34.8526 15.4222 33.955 11.2654 33.1438 10.8334C32.0494 10.2526 30.8062 11.1982 30.8062 11.1982C30.8062 11.1982 31.4302 14.6014 32.7982 15.3695C33.6094 15.8254 33.6046 16.8526 33.6238 17.611C33.1534 20.0638 31.9342 22.7902 34.6846 25.2527C37.6846 27.9359 38.3326 20.7551 38.3326 20.7551L36.259 17.4527Z" fill="#441D39"/>
<path d="M34.7617 7.19084C33.2113 4.61324 27.2497 3.33644 22.2865 4.34924L21.9553 3.23084C21.8929 3.02444 21.6769 2.90444 21.4657 2.96684C21.2593 3.02924 21.1393 3.24524 21.2017 3.45644L21.5185 4.53644C17.6833 5.53964 13.6897 8.39564 11.9377 11.986C10.1329 15.682 14.6833 15.7636 14.6833 15.7636C18.5569 9.92204 33.3505 11.362 33.3505 11.362C34.2097 11.1796 36.3553 9.85004 34.7569 7.19564L34.7617 7.19084Z" fill="#FF7C59"/>
<path d="M17.2176 39.7247C17.1264 39.7247 17.04 39.6767 17.0016 39.5903C16.944 39.4703 16.9968 39.3263 17.112 39.2687L18.9216 38.3999C19.0416 38.3423 19.1856 38.3951 19.2432 38.5151C19.3008 38.6351 19.248 38.7791 19.1328 38.8367L17.3232 39.7055C17.2896 39.7199 17.256 39.7295 17.2176 39.7295V39.7247Z" fill="#2A5E70"/>
<path d="M18.0431 42.5805C17.9519 42.5805 17.8655 42.5325 17.8271 42.4461C17.7695 42.3261 17.8223 42.1821 17.9375 42.1245L19.7471 41.2557C19.8671 41.1981 20.0111 41.2509 20.0687 41.3661C20.1263 41.4813 20.0735 41.6301 19.9583 41.6877L18.1487 42.5565C18.1151 42.5709 18.0815 42.5805 18.0431 42.5805Z" fill="#2A5E70"/>
<path d="M19.0945 45.9555C19.0033 45.9555 18.9169 45.9075 18.8785 45.8211C18.8209 45.7011 18.8737 45.5571 18.9889 45.4995L20.7985 44.6307C20.9185 44.5731 21.0625 44.6259 21.1201 44.7411C21.1777 44.8611 21.1249 45.0051 21.0097 45.0627L19.2001 45.9315C19.1665 45.9459 19.1329 45.9555 19.0945 45.9555Z" fill="#2A5E70"/>
<path d="M31.3393 39.7248C31.3057 39.7248 31.2673 39.7152 31.2337 39.7008L29.4241 38.832C29.3041 38.7744 29.2561 38.6304 29.3137 38.5104C29.3713 38.3904 29.5153 38.3376 29.6353 38.3952L31.4449 39.264C31.5649 39.3216 31.6129 39.4656 31.5553 39.5856C31.5121 39.672 31.4305 39.72 31.3393 39.72V39.7248Z" fill="#2A5E70"/>
<path d="M30.5138 42.5803C30.4802 42.5803 30.4418 42.5707 30.4082 42.5563L28.5986 41.6875C28.4786 41.6299 28.4306 41.4859 28.4882 41.3659C28.5458 41.2459 28.6898 41.1979 28.8098 41.2555L30.6194 42.1243C30.7394 42.1819 30.7874 42.3259 30.7298 42.4459C30.6866 42.5323 30.605 42.5803 30.5138 42.5803Z" fill="#2A5E70"/>
<path d="M29.4624 45.9553C29.4288 45.9553 29.3904 45.9457 29.3568 45.9313L27.5472 45.0625C27.4272 45.0049 27.3792 44.8609 27.4368 44.7409C27.4944 44.6209 27.6384 44.5729 27.7584 44.6305L29.568 45.4993C29.688 45.5569 29.736 45.7009 29.6784 45.8209C29.6352 45.9073 29.5536 45.9553 29.4624 45.9553Z" fill="#2A5E70"/>
</g>
<defs>
<clipPath id="clip0_142_4422">
<rect width="48" height="48" rx="24" fill="white"/>
</clipPath>
</defs>
</svg>
