<svg width="32" height="20" viewBox="0 0 32 20" fill="none" xmlns="http://www.w3.org/2000/svg">
<path d="M15.6769 0.216614C15.8052 -0.0306132 16.1579 -0.0305718 16.2863 0.216614L25.9357 18.8084C26.0544 19.0373 25.8879 19.3104 25.63 19.3104H6.33313C6.07537 19.3103 5.90884 19.0372 6.02747 18.8084L15.6769 0.216614Z" fill="white"/>
<path d="M30.6393 17.9932L30.7348 17.9899C30.7034 17.992 30.6715 17.9932 30.6393 17.9932Z" fill="white" fill-opacity="0.8"/>
<path d="M21.8777 0.185234C22.0061 -0.0617861 22.3599 -0.0617033 22.4883 0.185234L30.9444 16.459C31.0632 16.6878 30.8972 16.9612 30.6393 16.9613H26.1653L19.6669 4.43923L21.8777 0.185234Z" fill="white" fill-opacity="0.8"/>
<path d="M31.9864 16.3324L32.0001 16.4071C31.9958 16.3798 31.9903 16.3526 31.9843 16.3253C31.9848 16.3277 31.9858 16.33 31.9864 16.3324Z" fill="white" fill-opacity="0.8"/>
<path d="M31.9013 16.0696C31.91 16.0897 31.9176 16.1101 31.9253 16.1302C31.9173 16.1092 31.9092 16.088 31.9 16.0672L31.9013 16.0696Z" fill="white" fill-opacity="0.8"/>
<path d="M1.36078 17.9932L1.26531 17.9899C1.29676 17.992 1.32859 17.9932 1.36078 17.9932Z" fill="white" fill-opacity="0.8"/>
<path d="M10.1224 0.185234C9.99403 -0.0617861 9.64024 -0.0617033 9.51178 0.185234L1.05568 16.459C0.936912 16.6878 1.10296 16.9612 1.36078 16.9613H5.83478L12.3333 4.43923L10.1224 0.185234Z" fill="white" fill-opacity="0.8"/>
<path d="M0.0137644 16.3324L6.58035e-05 16.4071C0.00436592 16.3798 0.009799 16.3526 0.0158396 16.3253C0.0153103 16.3277 0.0142803 16.33 0.0137644 16.3324Z" fill="white" fill-opacity="0.8"/>
<path d="M0.0988607 16.0696C0.0900812 16.0897 0.0825243 16.1101 0.0747843 16.1302C0.0828514 16.1092 0.090909 16.088 0.100106 16.0672L0.0988607 16.0696Z" fill="white" fill-opacity="0.8"/>
</svg>
