<svg width="140" height="140" viewBox="0 0 140 140" fill="none" xmlns="http://www.w3.org/2000/svg">
<path d="M50.8956 121.243C58.3239 125.72 63.6233 123.861 65.6521 120.271C69.5755 113.328 82.6207 99.1291 103.294 94.3302C130.674 87.9742 124.956 71.098 108.124 62.2422C91.2925 53.3863 78.7072 41.1326 80.6119 27.8089C82.5167 14.4851 63.644 9.89203 55.251 35.5224C49.8272 52.0857 40.1075 56.5231 33.9094 57.5897C28.0679 58.595 21.6779 59.8563 18.5619 64.8986C14.7807 71.0166 16.1002 77.2053 31.9309 81.45C54.3645 87.465 34.2455 111.206 50.8956 121.243Z" fill="#CDFAF1"/>
<path d="M31.5953 92.2121C31.9096 92.0322 35.4578 90.5301 53.1093 98.7591C53.0578 98.8291 53.036 98.8622 53.036 98.8622C53.036 98.8622 34.6856 105.042 31.0901 97.4289C30.0165 95.1624 30.3241 93.6017 31.5646 92.2297L31.5953 92.2121Z" fill="#12736E"/>
<path d="M90.9232 95.3261C87.0883 98.5501 81.0742 100.89 75.2712 97.7784C76.1882 97.1924 77.1354 96.5889 78.1014 95.9646C83.9291 92.2201 89.0624 94.7256 90.9232 95.3261Z" fill="#12736E"/>
<path d="M97.7924 55.6745C101.711 88.3004 92.3992 94.2216 91.3627 95.1211C91.0626 95.3815 90.9409 95.3625 90.4872 95.2457L90.4795 95.2501C88.5591 94.741 83.9292 92.2201 78.1013 95.9641C77.1353 96.5884 76.1878 97.1919 75.2711 97.7779C69.326 101.548 64.5251 104.206 61.0663 102.663C58.1326 101.167 55.4873 99.8715 53.1092 98.759C35.4577 90.5299 31.9096 92.032 31.5952 92.212C31.96 92.0133 35.3062 90.1585 39.8118 86.8967C39.8271 86.8879 39.8425 86.8791 39.8458 86.8671C45.8681 82.5026 53.9333 75.6247 59.7306 66.7771C63.6771 60.7607 67.538 45.5086 74.9873 42.5159C90.2971 36.8046 97.1567 49.0382 97.7924 55.6745Z" fill="#11968D"/>
<path d="M80.8641 55.1021C81.3393 53.8472 81.293 52.6665 80.7606 52.4649C80.2282 52.2633 79.4114 53.1171 78.9362 54.372C78.4609 55.6269 78.5073 56.8076 79.0396 57.0092C79.572 57.2108 80.3888 56.357 80.8641 55.1021Z" fill="#CDFAF1"/>
<path d="M90.6122 56.7032C90.949 55.4043 90.7753 54.2355 90.2243 54.0926C89.6732 53.9497 88.9535 54.8869 88.6167 56.1858C88.2799 57.4847 88.4535 58.6535 89.0046 58.7964C89.5557 58.9393 90.2754 58.0021 90.6122 56.7032Z" fill="#CDFAF1"/>
<path d="M84.6785 61.4724C84.5986 61.4723 84.5212 61.4449 84.459 61.3948C84.3969 61.3446 84.3538 61.2747 84.3368 61.1967C84.2744 60.9142 83.9968 60.0782 83.5566 59.954C83.1165 59.8297 82.253 60.3121 81.9037 60.5652C81.8285 60.6196 81.7348 60.642 81.6431 60.6273C81.5515 60.6126 81.4694 60.5622 81.4149 60.487C81.3605 60.4118 81.3381 60.318 81.3528 60.2264C81.3674 60.1347 81.4179 60.0526 81.4931 59.9982C81.6308 59.8985 82.8638 59.0311 83.7467 59.2802C84.6675 59.5401 84.9874 60.8942 85.0207 61.0478C85.0318 61.0989 85.0314 61.1519 85.0193 61.2028C85.0073 61.2538 84.984 61.3013 84.9512 61.3421C84.9183 61.3828 84.8768 61.4156 84.8295 61.4382C84.7823 61.4607 84.7307 61.4724 84.6783 61.4724H84.6785Z" fill="#CDFAF1"/>
</svg>
