<svg width="20" height="20" viewBox="0 0 20 20" fill="none" xmlns="http://www.w3.org/2000/svg">
<path d="M13.3333 14.1666V15.8333H1.66667V14.1666C1.66667 14.1666 1.66667 10.8333 7.5 10.8333C13.3333 10.8333 13.3333 14.1666 13.3333 14.1666ZM10.4167 6.24995C10.4167 5.67309 10.2456 5.10918 9.92512 4.62954C9.60463 4.14989 9.14911 3.77606 8.61616 3.5553C8.08321 3.33455 7.49676 3.27679 6.93098 3.38933C6.36521 3.50187 5.84551 3.77965 5.4376 4.18755C5.0297 4.59546 4.75192 5.11516 4.63938 5.68094C4.52684 6.24671 4.58459 6.83316 4.80535 7.36611C5.02611 7.89906 5.39994 8.35458 5.87959 8.67507C6.35923 8.99556 6.92314 9.16662 7.5 9.16662C8.27355 9.16662 9.01541 8.85932 9.56239 8.31234C10.1094 7.76536 10.4167 7.0235 10.4167 6.24995ZM13.2833 10.8333C13.7956 11.2297 14.2148 11.7336 14.5114 12.3095C14.808 12.8854 14.9748 13.5193 15 14.1666V15.8333H18.3333V14.1666C18.3333 14.1666 18.3333 11.1416 13.2833 10.8333ZM12.5 3.33328C11.9265 3.33062 11.3657 3.50206 10.8917 3.82495C11.3979 4.53223 11.67 5.38019 11.67 6.24995C11.67 7.11971 11.3979 7.96767 10.8917 8.67495C11.3657 8.99784 11.9265 9.16928 12.5 9.16662C13.2735 9.16662 14.0154 8.85932 14.5624 8.31234C15.1094 7.76536 15.4167 7.0235 15.4167 6.24995C15.4167 5.4764 15.1094 4.73454 14.5624 4.18755C14.0154 3.64057 13.2735 3.33328 12.5 3.33328Z" fill="#D5D5D5"/>
</svg>
