<svg width="240" height="240" viewBox="0 0 240 240" fill="none" xmlns="http://www.w3.org/2000/svg">
<path d="M87.2497 207.845C99.984 215.52 109.069 212.333 112.547 206.179C119.272 194.276 141.636 169.935 177.075 161.709C224.012 150.813 214.21 121.882 185.356 106.701C156.501 91.5193 134.927 70.5129 138.192 47.6722C141.457 24.8315 109.104 16.9576 94.716 60.8954C85.4182 89.2897 68.7558 96.8966 58.1305 98.7251C48.1164 100.448 37.1622 102.611 31.8204 111.255C25.3385 121.743 27.6004 132.352 54.7387 139.628C93.1964 149.94 58.7066 190.639 87.2497 207.845Z" fill="#E9FFFD"/>
<path d="M54.1633 158.078C54.7022 157.769 60.7848 155.194 91.0445 169.301C90.9563 169.421 90.9188 169.478 90.9188 169.478C90.9188 169.478 59.4609 180.072 53.2974 167.021C51.4568 163.135 51.9842 160.46 54.1107 158.108L54.1633 158.078Z" fill="#75BBB3"/>
<path d="M155.869 163.416C149.294 168.943 138.985 172.954 129.036 167.62C130.608 166.615 132.232 165.581 133.888 164.511C143.879 158.091 152.678 162.387 155.869 163.416Z" fill="#75BBB3"/>
<path d="M167.644 95.4418C174.361 151.372 158.399 161.523 156.622 163.065C156.107 163.511 155.899 163.478 155.121 163.278L155.108 163.286C151.816 162.413 143.879 158.091 133.888 164.51C132.232 165.58 130.608 166.615 129.036 167.619C118.845 174.083 110.615 178.638 104.685 175.994C99.656 173.428 95.1213 171.208 91.0446 169.301C60.7849 155.194 54.7023 157.769 54.1634 158.078C54.7887 157.737 60.5251 154.557 68.249 148.966C68.2753 148.951 68.3016 148.936 68.3072 148.915C78.6313 141.433 92.4573 129.642 102.395 114.475C109.161 104.161 115.78 78.0146 128.55 72.8843C154.795 63.0935 166.555 84.0653 167.644 95.4418Z" fill="#138E85"/>
<path d="M138.624 94.4607C139.439 92.3095 139.359 90.2854 138.447 89.9398C137.534 89.5942 136.134 91.0579 135.319 93.2091C134.505 95.3603 134.584 97.3844 135.497 97.7301C136.409 98.0757 137.809 96.6119 138.624 94.4607Z" fill="#E9FFFD"/>
<path d="M155.335 97.2053C155.913 94.9786 155.615 92.975 154.67 92.73C153.725 92.4851 152.492 94.0916 151.914 96.3183C151.337 98.545 151.635 100.549 152.579 100.794C153.524 101.039 154.758 99.432 155.335 97.2053Z" fill="#E9FFFD"/>
<path d="M145.163 105.381C145.026 105.381 144.893 105.334 144.787 105.248C144.68 105.162 144.606 105.042 144.577 104.908C144.47 104.424 143.994 102.991 143.24 102.778C142.485 102.565 141.005 103.392 140.406 103.826C140.277 103.919 140.117 103.958 139.96 103.932C139.802 103.907 139.662 103.821 139.568 103.692C139.475 103.563 139.437 103.402 139.462 103.245C139.487 103.088 139.574 102.947 139.702 102.854C139.938 102.683 142.052 101.196 143.566 101.623C145.144 102.069 145.693 104.39 145.75 104.653C145.769 104.741 145.768 104.832 145.747 104.919C145.727 105.006 145.687 105.088 145.631 105.158C145.574 105.228 145.503 105.284 145.422 105.322C145.341 105.361 145.253 105.381 145.163 105.381H145.163Z" fill="#E9FFFD"/>
</svg>
