<svg width="140" height="140" viewBox="0 0 140 140" fill="none" xmlns="http://www.w3.org/2000/svg">
<path d="M50.8957 121.243C58.324 125.72 63.6234 123.861 65.6522 120.271C69.5756 113.328 82.6208 99.129 103.294 94.3301C130.674 87.9741 124.956 71.0979 108.124 62.2421C91.2925 53.3863 78.7072 41.1325 80.612 27.8088C82.5168 14.4851 63.644 9.89197 55.251 35.5223C49.8273 52.0857 40.1076 56.523 33.9095 57.5897C28.0679 58.595 21.678 59.8563 18.5619 64.8985C14.7808 71.0165 16.1002 77.2052 31.9309 81.4499C54.3646 87.4649 34.2456 111.206 50.8957 121.243Z" fill="#CDFAF1"/>
<path d="M31.5953 92.2119C31.9096 92.0319 35.4578 90.5298 53.1093 98.7589C53.0578 98.8289 53.036 98.862 53.036 98.862C53.036 98.862 34.6856 105.042 31.0901 97.4286C30.0165 95.1622 30.3241 93.6015 31.5646 92.2295L31.5953 92.2119Z" fill="#12736E"/>
<path d="M90.9233 95.3262C87.0884 98.5502 81.0743 100.89 75.2713 97.7785C76.1883 97.1925 77.1355 96.589 78.1015 95.9646C83.9292 92.2202 89.0624 94.7256 90.9233 95.3262Z" fill="#12736E"/>
<path d="M97.7925 55.6743C101.711 88.3002 92.3994 94.2214 91.3628 95.1209C91.0627 95.3813 90.9411 95.3623 90.4873 95.2455L90.4796 95.2499C88.5592 94.7408 83.9293 92.2199 78.1014 95.9639C77.1354 96.5882 76.1879 97.1918 75.2712 97.7777C69.3261 101.548 64.5252 104.205 61.0665 102.663C58.1327 101.166 55.4875 99.8713 53.1093 98.7588C35.4579 90.5297 31.9097 92.0318 31.5953 92.2118C31.9601 92.0132 35.3063 90.1583 39.8119 86.8965C39.8273 86.8877 39.8426 86.8789 39.8459 86.8669C45.8683 82.5024 53.9335 75.6245 59.7307 66.7769C63.6772 60.7605 67.5381 45.5084 74.9874 42.5157C90.2972 36.8044 97.1568 49.038 97.7925 55.6743Z" fill="#11968D"/>
<path d="M80.8641 55.102C81.3393 53.8471 81.293 52.6664 80.7607 52.4648C80.2283 52.2632 79.4115 53.117 78.9362 54.3719C78.461 55.6268 78.5073 56.8075 79.0397 57.0091C79.5721 57.2107 80.3889 56.3569 80.8641 55.102Z" fill="#CDFAF1"/>
<path d="M90.6121 56.7032C90.949 55.4042 90.7753 54.2354 90.2242 54.0926C89.6732 53.9497 88.9534 54.8868 88.6166 56.1857C88.2798 57.4846 88.4535 58.6534 89.0045 58.7963C89.5556 58.9392 90.2753 58.0021 90.6121 56.7032Z" fill="#CDFAF1"/>
<path d="M84.6785 61.4722C84.5986 61.4722 84.5212 61.4448 84.459 61.3946C84.3969 61.3445 84.3538 61.2746 84.3368 61.1966C84.2744 60.9141 83.9968 60.0781 83.5566 59.9539C83.1165 59.8296 82.253 60.312 81.9037 60.565C81.8285 60.6195 81.7348 60.6418 81.6431 60.6272C81.5515 60.6125 81.4694 60.562 81.4149 60.4868C81.3605 60.4117 81.3381 60.3179 81.3528 60.2262C81.3674 60.1346 81.4179 60.0525 81.4931 59.998C81.6308 59.8984 82.8638 59.031 83.7467 59.2801C84.6675 59.54 84.9874 60.8941 85.0207 61.0477C85.0318 61.0988 85.0314 61.1518 85.0193 61.2027C85.0073 61.2536 84.984 61.3012 84.9512 61.3419C84.9183 61.3827 84.8768 61.4155 84.8295 61.4381C84.7823 61.4606 84.7307 61.4723 84.6783 61.4722H84.6785Z" fill="#CDFAF1"/>
</svg>
