<svg width="40" height="40" viewBox="0 0 40 40" fill="none" xmlns="http://www.w3.org/2000/svg">
<rect width="40" height="40" fill="black"/>
<path d="M19.6761 11.0381C19.8044 10.7909 20.158 10.7909 20.2864 11.0381L29.9358 29.6299C30.0546 29.8588 29.888 30.1328 29.6302 30.1328H10.3333C10.0755 30.1327 9.90892 29.8587 10.0276 29.6299L19.6761 11.0381ZM20.3391 9.86719C20.4563 9.89808 20.5695 9.94498 20.6761 10.0068C20.5695 9.94497 20.4562 9.89809 20.3391 9.86719Z" fill="white"/>
<path d="M34.6393 28.8148L34.7348 28.8115C34.7033 28.8135 34.6715 28.8148 34.6393 28.8148Z" fill="white" fill-opacity="0.8"/>
<path d="M25.8777 11.0068C26.006 10.7597 26.3598 10.7598 26.4883 11.0068L34.9444 27.2806C35.0632 27.5094 34.8971 27.7827 34.6393 27.7828H30.1653L23.6668 15.2608L25.8777 11.0068Z" fill="white" fill-opacity="0.8"/>
<path d="M35.9863 27.1539L36 27.2287C35.9957 27.2014 35.9903 27.1742 35.9842 27.1469C35.9848 27.1493 35.9858 27.1516 35.9863 27.1539Z" fill="white" fill-opacity="0.8"/>
<path d="M35.9012 26.8912C35.91 26.9112 35.9175 26.9316 35.9253 26.9518C35.9172 26.9308 35.9092 26.9096 35.9 26.8887L35.9012 26.8912Z" fill="white" fill-opacity="0.8"/>
<path d="M5.36072 28.8148L5.26524 28.8115C5.29669 28.8135 5.32853 28.8148 5.36072 28.8148Z" fill="white" fill-opacity="0.8"/>
<path d="M14.1223 11.0068C13.994 10.7597 13.6402 10.7598 13.5117 11.0068L5.05562 27.2806C4.93685 27.5094 5.1029 27.7827 5.36072 27.7828H9.83472L16.3332 15.2608L14.1223 11.0068Z" fill="white" fill-opacity="0.8"/>
<path d="M4.0137 27.1539L4 27.2287C4.0043 27.2014 4.00974 27.1742 4.01578 27.1469C4.01525 27.1493 4.01422 27.1516 4.0137 27.1539Z" fill="white" fill-opacity="0.8"/>
<path d="M4.0988 26.8912C4.09002 26.9112 4.08246 26.9316 4.07472 26.9518C4.08279 26.9308 4.09085 26.9096 4.10004 26.8887L4.0988 26.8912Z" fill="white" fill-opacity="0.8"/>
</svg>
